<?xml version="1.0" encoding="UTF-8" standalone="no"?>
<svg width="314px" height="461px" viewBox="0 0 314 461" version="1.1" xmlns="http://www.w3.org/2000/svg" xmlns:xlink="http://www.w3.org/1999/xlink">
    <!-- Generator: Sketch 3.8.3 (29802) - http://www.bohemiancoding.com/sketch -->
    <title>guide1</title>
    <desc>Created with Sketch.</desc>
    <defs></defs>
    <g id="Hamburger-Navigation" stroke="none" stroke-width="1" fill="none" fill-rule="evenodd">
        <g id="Guide---1" transform="translate(-33.000000, -87.000000)">
            <g id="guide1" transform="translate(33.000000, 86.000000)">
                <path d="M120.5,1.5 L313.5,1.5" id="Line" stroke="#979797" stroke-linecap="square"></path>
                <path d="M255.5,356.5 L311.5,356.5" id="Line-Copy-16" stroke="#979797" stroke-linecap="square"></path>
                <path d="M1.5,356.5 L208.5,356.5" id="Line-Copy-15" stroke="#979797" stroke-linecap="square"></path>
                <path d="M0.5,1.5 L76.5454407,1.5" id="Line" stroke="#979797" stroke-linecap="square"></path>
                <text id="代表不同的人生事件" font-family="PingFangTC-Medium, PingFang TC" font-size="18" font-weight="400" letter-spacing="0.745652199" fill-opacity="0.5" fill="#4B3F3E">
                    <tspan x="70.6445651" y="460">代表不同的人生事件</tspan>
                </text>
                <text id="選擇目標" font-family="PingFangTC-Medium, PingFang TC" font-size="24" font-weight="400" letter-spacing="0.994202971" fill="#E38F71">
                    <tspan x="105.011594" y="423">選擇目標</tspan>
                </text>
                <g id="family" transform="translate(8.000000, 170.000000)">
                    <path d="M13.4061027,154.941682 C10.5461027,154.941682 8.21610275,152.621682 8.21610275,149.751682 L8.21610275,114.421682 C8.21610275,111.561682 10.5461027,109.241682 13.4061027,109.241682 C16.2761027,109.241682 18.5961027,111.561682 18.5961027,114.421682 L18.5961027,149.751682 C18.5961027,152.621682 16.2761027,154.941682 13.4061027,154.941682" id="Fill-110" fill="#F0E9DC"></path>
                    <path d="M30.7861027,154.941682 C27.9261027,154.941682 25.6061027,152.621682 25.6061027,149.751682 L25.6061027,114.421682 C25.6061027,111.561682 27.9261027,109.241682 30.7861027,109.241682 C33.6561027,109.241682 35.9761027,111.561682 35.9761027,114.421682 L35.9761027,149.751682 C35.9761027,152.621682 33.6561027,154.941682 30.7861027,154.941682" id="Fill-111" fill="#F0E9DC"></path>
                    <path d="M41.1261027,68.2916821 L0.456102749,68.2916821 L0.576102749,20.0616821 C0.576102749,20.0616821 -0.763897251,4.30168212 20.3561027,4.30168212 C41.4761027,4.30168212 41.0461027,20.1516821 41.0461027,20.1516821 L41.1261027,68.2916821" id="Fill-112" fill="#4B3F3E"></path>
                    <path d="M35.6461027,54.1916821 C35.6461027,59.4016821 29.1361027,58.1616821 20.9761027,58.1616821 C18.9061027,58.1616821 16.9361027,58.2416821 15.1361027,58.2816821 C9.85610275,58.3816821 4.19610275,45.8516821 15.1761027,44.9516821 C16.7861027,44.8216821 18.6761027,44.7516821 20.8861027,44.7516821 C38.1761027,44.7516821 35.6461027,48.9816821 35.6461027,54.1916821" id="Fill-113" fill="#D6CBAB"></path>
                    <path d="M3.94610275,85.7316821 C1.90610275,85.7316821 0.216102749,84.1116821 0.166102749,82.0516821 C-0.343897251,63.5916821 -0.203897251,52.8916821 8.51610275,47.6716821 C10.3061027,46.6016821 12.6361027,47.1916821 13.7061027,48.9816821 C14.7761027,50.7716821 14.1961027,53.1016821 12.3961027,54.1716821 C7.82610275,56.9016821 7.22610275,63.4816821 7.72610275,81.8416821 C7.78610275,83.9316821 6.13610275,85.6716821 4.05610275,85.7316821 L3.94610275,85.7316821" id="Fill-114" fill="#F0E9DC"></path>
                    <polygon id="Fill-115" fill="#F0E9DC" points="16.3061027 49.2416821 25.6461027 49.2416821 25.6461027 37.8416821 16.3061027 37.8416821"></polygon>
                    <path d="M36.9361027,21.9516821 C36.9361027,31.9616821 29.9061027,40.0716821 21.2261027,40.0716821 C12.5461027,40.0716821 5.51610275,31.9616821 5.51610275,21.9516821 C5.51610275,11.9416821 12.5461027,3.83168212 21.2261027,3.83168212 C29.9061027,3.83168212 36.9361027,11.9416821 36.9361027,21.9516821" id="Fill-116" fill="#F0E9DC"></path>
                    <path d="M0.576102749,20.0616821 C1.73610275,20.0616821 2.71610275,22.8716821 3.78610275,22.8716821 C26.4461027,22.8716821 37.0961027,14.0916821 38.1861027,18.3016821 C39.1261027,18.3016821 40.0761027,20.1516821 41.0461027,20.1516821 C41.0461027,7.12168212 33.3761027,1.04168212 19.9961027,1.04168212 C6.61610275,1.04168212 0.576102749,6.89168212 0.576102749,20.0616821" id="Fill-117" fill="#4B3F3E"></path>
                    <path d="M58.7361027,78.3716821 C57.7761027,78.3716821 56.8161027,78.0116821 56.0761027,77.2816821 C50.6361027,71.8916821 35.3961027,57.2416821 30.2561027,54.1716821 C28.4661027,53.1016821 27.8761027,50.7716821 28.9561027,48.9816821 C30.0261027,47.1916821 32.3461027,46.6016821 34.1461027,47.6716821 C40.9961027,51.7716821 59.3361027,69.8516821 61.4061027,71.9016821 C62.8861027,73.3716821 62.8961027,75.7716821 61.4261027,77.2516821 C60.6861027,78.0016821 59.7161027,78.3716821 58.7361027,78.3716821" id="Fill-118" fill="#F0E9DC"></path>
                    <path d="M30.9061027,77.3716821 C30.9061027,77.3716821 32.0761027,64.0516821 32.8061027,61.0416821 C34.2361027,56.6316821 38.7061027,51.1516821 39.0261027,50.5916821 C35.0161027,45.4716821 27.2761027,44.3516821 26.3561027,44.7516821 C26.3561027,45.9116821 24.1361027,50.8716821 21.3261027,51.0716821 C18.5261027,50.8716821 16.3061027,45.9116821 16.3061027,44.7516821 C15.3761027,44.3516821 7.64610275,45.4716821 3.63610275,50.5916821 C3.95610275,51.1516821 8.42610275,56.6316821 9.85610275,61.0416821 C9.71610275,64.5116821 11.7461027,77.3716821 11.7461027,77.3716821 C11.7461027,77.3716821 -0.943897251,114.221682 0.286102749,115.491682 C1.50610275,116.751682 6.07610275,117.081682 21.3261027,117.091682 C36.5861027,117.081682 41.1561027,116.751682 42.3761027,115.491682 C43.6061027,114.221682 30.9061027,77.3716821 30.9061027,77.3716821" id="Fill-119" fill="#E38F71"></path>
                    <path d="M107.596103,88.3516821 C105.526103,88.3516821 103.836103,86.6816821 103.816103,84.6016821 L103.796103,82.6416821 C103.696103,70.8316821 103.616103,61.5016821 99.6261027,54.0416821 C98.6361027,52.2016821 99.3361027,49.9016821 101.176103,48.9216821 C103.026103,47.9316821 105.316103,48.6316821 106.306103,50.4716821 C111.166103,59.5716821 111.256103,69.7216821 111.366103,82.5816821 L111.386103,84.5316821 C111.406103,86.6216821 109.726103,88.3316821 107.636103,88.3516821 L107.596103,88.3516821" id="Fill-120" fill="#F0E9DC"></path>
                    <path d="M52.8861027,76.0616821 C51.9461027,76.0616821 51.0061027,75.7116821 50.2761027,75.0116821 C48.7561027,73.5616821 48.7061027,71.1716821 50.1561027,69.6616821 C50.2961027,69.5016821 64.9661027,54.1516821 69.0761027,48.1716821 C70.2561027,46.4516821 72.6161027,46.0116821 74.3361027,47.1916821 C76.0661027,48.3816821 76.4961027,50.7316821 75.3161027,52.4616821 C70.8661027,58.9416821 56.2461027,74.2416821 55.6261027,74.8916821 C54.8761027,75.6716821 53.8861027,76.0616821 52.8861027,76.0616821" id="Fill-121" fill="#F0E9DC"></path>
                    <path d="M102.166103,91.3316821 C102.106103,87.5816821 99.0461027,84.5716821 95.2961027,84.5716821 L78.2361027,84.5716821 C74.4861027,84.5716821 71.4261027,87.5816821 71.3661027,91.3316821 L70.7361027,148.101682 C70.6761027,151.891682 73.4261027,155.021682 77.2161027,155.081682 L77.3261027,155.081682 C81.0761027,155.081682 84.1361027,152.071682 84.1961027,148.321682 L84.9961027,98.3116821 L88.5361027,98.3116821 L89.3261027,148.321682 C89.3861027,152.071682 92.4561027,155.081682 96.1961027,155.081682 L96.3061027,155.081682 C100.096103,155.021682 102.566103,151.891682 102.506103,148.101682 L102.166103,91.3316821" id="Fill-122" fill="#4B3F3E"></path>
                    <polygon id="Fill-123" fill="#F0E9DC" points="81.0561027 43.8816821 92.6061027 43.8816821 92.6061027 32.2516821 81.0561027 32.2516821"></polygon>
                    <path d="M103.126103,19.2116821 C103.126103,29.4216821 95.9461027,37.6916821 87.0961027,37.6916821 C78.2461027,37.6916821 71.0661027,29.4216821 71.0661027,19.2116821 C71.0661027,9.00168212 78.2461027,0.731682122 87.0961027,0.731682122 C95.9461027,0.731682122 103.126103,9.00168212 103.126103,19.2116821" id="Fill-124" fill="#F0E9DC"></path>
                    <path d="M103.126103,21.1016821 C100.186103,21.0016821 96.5361027,19.6716821 93.0661027,17.0916821 C87.1661027,20.5416821 74.3761027,20.5216821 71.0661027,20.5216821 C69.2561027,15.8116821 70.4061027,7.15168212 76.3261027,5.78168212 C78.4861027,-2.27831788 90.2961027,-0.248317878 95.3561027,2.02168212 C103.456103,5.64168212 105.456103,13.2816821 103.126103,21.1016821" id="Fill-125" fill="#1B1A18"></path>
                    <polyline id="Fill-126" fill="#E38F71" points="99.3861027 44.1116821 86.7761027 42.7916821 74.1561027 44.1116821 71.4561027 91.4516821 101.816103 91.4516821 99.3861027 44.1116821"></polyline>
                    <path d="M107.526103,52.8416821 C107.526103,52.8416821 105.416103,45.1016821 100.656103,42.0216821 C98.5961027,40.6916821 92.3061027,40.3816821 86.7761027,40.4616821 C81.2361027,40.3816821 74.9561027,40.6916821 72.8961027,42.0216821 C68.1261027,45.1016821 65.4861027,50.5616821 65.4861027,50.5616821 C64.6061027,52.4616821 73.0561027,57.9916821 73.6961027,56.6016821 L77.2461027,48.9116821 L97.1361027,48.9116821 L100.696103,56.6016821 C101.336103,57.9916821 108.396103,54.7416821 107.526103,52.8416821" id="Fill-127" fill="#E38F71"></path>
                    <path d="M66.0261027,115.291682 C64.4861027,115.291682 63.2361027,114.051682 63.2161027,112.511682 L63.2061027,111.281682 C63.1461027,103.641682 63.0961027,98.1116821 60.6361027,93.5216821 C59.9061027,92.1516821 60.4261027,90.4516821 61.7861027,89.7216821 C63.1561027,88.9916821 64.8561027,89.5116821 65.5861027,90.8816821 C68.6861027,96.6816821 68.7461027,103.101682 68.8161027,111.231682 L68.8261027,112.461682 C68.8361027,114.011682 67.5961027,115.281682 66.0461027,115.291682 L66.0261027,115.291682" id="Fill-128" fill="#F0E9DC"></path>
                    <path d="M41.2561027,114.211682 L41.2261027,114.211682 C39.5961027,114.201682 38.2961027,112.871682 38.3061027,111.241682 C38.3961027,102.361682 38.7061027,95.6116821 41.9161027,89.5916821 C42.6861027,88.1616821 44.4661027,87.6216821 45.9061027,88.3816821 C47.3361027,89.1516821 47.8761027,90.9316821 47.1161027,92.3716821 C44.5261027,97.2016821 44.2761027,103.261682 44.1961027,111.301682 C44.1861027,112.911682 42.8661027,114.211682 41.2561027,114.211682" id="Fill-129" fill="#F0E9DC"></path>
                    <path d="M63.3361027,116.731682 C63.2961027,114.381682 61.3761027,112.491682 59.0161027,112.491682 L48.3061027,112.491682 C45.9461027,112.491682 44.0261027,114.381682 43.9961027,116.731682 L43.6061027,150.421682 C43.5661027,152.801682 45.2861027,154.761682 47.6661027,154.801682 L47.7361027,154.801682 C50.0861027,154.801682 52.0161027,152.911682 52.0561027,150.551682 L52.5461027,121.111682 L54.7761027,121.111682 L55.2761027,150.551682 C55.3161027,152.911682 57.2361027,154.801682 59.5861027,154.801682 L59.6561027,154.801682 C62.0361027,154.761682 63.5861027,152.801682 63.5461027,150.421682 L63.3361027,116.731682" id="Fill-130" fill="#4B3F3E"></path>
                    <polygon id="Fill-131" fill="#D6CBAB" points="50.0861027 86.9416821 57.3261027 86.9416821 57.3261027 79.6416821 50.0861027 79.6416821"></polygon>
                    <path d="M63.9361027,71.4516821 C63.9361027,77.8616821 59.4261027,83.0516821 53.8661027,83.0516821 C48.3161027,83.0516821 43.8061027,77.8616821 43.8061027,71.4516821 C43.8061027,65.0416821 48.3161027,59.8416821 53.8661027,59.8416821 C59.4261027,59.8416821 63.9361027,65.0416821 63.9361027,71.4516821" id="Fill-132" fill="#F0E9DC"></path>
                    <path d="M63.9261027,71.8016821 C62.2061027,71.3716821 53.9761027,68.0216821 43.8061027,72.2716821 C42.8861027,56.7116821 55.8761027,59.2316821 59.0561027,60.6516821 C64.1461027,62.9316821 64.4561027,66.9016821 63.9261027,71.8016821" id="Fill-133" fill="#1B1A18"></path>
                    <polyline id="Fill-134" fill="#E38F71" points="61.5961027 87.0816821 53.6661027 86.2516821 45.7461027 87.0816821 44.0461027 116.811682 63.1161027 116.811682 61.5961027 87.0816821"></polyline>
                    <path d="M66.6961027,92.5616821 C66.6961027,92.5616821 65.3761027,87.7116821 62.3861027,85.7716821 C61.5461027,85.2316821 59.5661027,84.9516821 57.3261027,84.8416821 C56.6361027,85.5416821 54.8761027,86.2316821 53.6661027,86.2516821 C52.3761027,86.2316821 51.2061027,85.2616821 49.7661027,84.8616821 C47.6261027,84.9716821 45.7661027,85.2516821 44.9561027,85.7716821 C41.9661027,87.7116821 40.3061027,92.9316821 40.3061027,92.9316821 C39.7461027,94.1216821 45.0561027,95.8016821 45.4561027,94.9316821 L47.6861027,90.1016821 L60.1761027,90.1016821 L61.6861027,95.1716821 C62.0861027,96.0416821 67.2461027,93.7516821 66.6961027,92.5616821" id="Fill-135" fill="#E38F71"></path>
                </g>
                <g id="career" transform="translate(204.000000, 179.000000)">
                    <polygon id="Fill-65" fill="#4B3F3E" points="41.2170012 139.9825 48.8737952 139.9825 48.8737952 36.8625655 41.2170012 36.8625655"></polygon>
                    <polyline id="Fill-66" fill="#4B3F3E" points="56.5305892 36.8625655 48.8737952 36.8625655 70.2623647 139.9825 77.9187478 139.9825 56.5305892 36.8625655"></polyline>
                    <polyline id="Fill-67" fill="#4B3F3E" points="33.561029 36.8625655 41.2170012 36.8625655 19.8288426 139.9825 12.1724595 139.9825 33.561029 36.8625655"></polyline>
                    <polygon id="Fill-68" fill="#F0E9DC" points="0.443628319 104.66523 89.6471681 104.66523 89.6471681 4.28280176 0.443628319 4.28280176"></polygon>
                    <polygon id="Fill-69" fill="#4B3F3E" points="0.443628319 108.391214 89.6471681 108.391214 89.6471681 100.939246 0.443628319 100.939246"></polygon>
                    <polygon id="Fill-70" fill="#4B3F3E" points="0.443628319 8.00878534 89.6471681 8.00878534 89.6471681 0.556818182 0.443628319 0.556818182"></polygon>
                    <path d="M28.2025879,87.5208271 L20.372,83.9104058 C21.8054919,80.9653673 24.8540759,79.0875803 28.2025879,79.0875803 L28.2025879,87.5208271" id="Fill-71" fill-opacity="0.7" fill="#E38F71"></path>
                    <path d="M28.2025879,87.5208271 L28.2025879,79.0875803 C32.9878788,79.0875803 36.8676333,82.8635476 36.8676333,87.5208271 C36.8676333,87.7031676 36.8614704,87.8855081 36.8491446,88.0670488 L28.2025879,87.5208271" id="Fill-72" fill="#E38F71"></path>
                    <path d="M28.2025879,87.5208271 L19.5408295,87.7423548 C19.510015,86.6039265 19.7166777,85.4706964 20.1480811,84.4118421 C20.2171057,84.2422975 20.2918823,84.075152 20.372,83.9104058 L28.2025879,87.5208271" id="Fill-73" fill="#E38F71"></path>
                    <path d="M21.8087788,93.2125689 C20.5314139,91.8526129 19.7458488,90.1231775 19.5736983,88.2885765 C19.556853,88.1066359 19.5457598,87.9246953 19.5408295,87.7423548 L28.2025879,87.5208271 L21.8087788,93.2125689 Z" id="Fill-74" fill-opacity="0.5" fill="#E38F71"></path>
                    <path d="M34.4521851,93.3613204 L34.4530069,93.3617202 L34.4246575,93.3889114 C34.3934321,93.4205011 34.3622067,93.4516909 34.3301596,93.4824808 L34.2594916,93.5508585 L34.1867693,93.6192362 C34.1559548,93.6480268 34.1243186,93.6768174 34.0930932,93.7052081 L34.0462551,93.7467945 C34.0059908,93.7823829 33.9657265,93.8179713 33.9250513,93.8531598 L33.9094386,93.8663555 C33.1670139,94.5005485 32.3378976,94.9911883 31.4615325,95.3366755 L31.442222,95.344273 C31.4077097,95.3578686 31.3727866,95.3710643 31.3374526,95.3838601 C31.3045838,95.3966559 31.2708932,95.4098516 31.2372027,95.4218477 L31.2170705,95.4290453 C30.3296121,95.7497406 29.3768269,95.932481 28.387886,95.9516747 L28.3735059,95.9520746 C28.3196832,95.9528743 28.2650387,95.9536741 28.211216,95.9536741 L28.1421915,95.9536741 C28.099462,95.9532742 28.0563217,95.9524744 28.014003,95.9516747 L27.9166291,95.9488756 L27.8155575,95.9448769 C27.7715954,95.9432774 27.7272225,95.9408782 27.6836713,95.938479 L27.6413527,95.9360798 L27.5710955,95.9312814 L27.5620566,95.9308815 L27.5616458,95.9308815 L27.5361724,95.9288821 L27.5271335,95.9284823 L27.5185054,95.9276825 C27.4716673,95.9240837 27.4252401,95.920085 27.378402,95.9156865 L27.3693631,95.9148867 L27.3085558,95.9088887 L27.2995168,95.9080889 L27.2908888,95.9068893 L27.2822607,95.9060896 L27.2736326,95.9052898 L27.2650046,95.9040902 L27.2037864,95.8972925 L27.1951583,95.8964927 L27.1865302,95.895693 L27.1779022,95.8944934 C25.3701165,95.6869611 23.6157427,94.9252098 22.2011504,93.6036413 C22.0659774,93.4772825 21.9353238,93.3469251 21.8087788,93.2125689 L28.2025879,87.5208271 L36.8491446,88.0670488 C36.7115063,90.1335741 35.8195285,91.9769723 34.4521851,93.3613204" id="Fill-75" fill-opacity="0.3" fill="#E38F71"></path>
                    <polygon id="Fill-81" fill-opacity="0.37" fill="#A59F9E" points="48.9452849 81.306056 52.9988334 81.306056 52.9988334 79.0875803 48.9452849 79.0875803"></polygon>
                    <polygon id="Fill-82" fill-opacity="0.37" fill="#A59F9E" points="48.9452849 84.9672608 58.2179928 84.9672608 58.2179928 82.7491849 48.9452849 82.7491849"></polygon>
                    <polygon id="Fill-83" fill-opacity="0.37" fill="#A59F9E" points="48.9452849 88.6288654 61.3828502 88.6288654 61.3828502 86.4107895 48.9452849 86.4107895"></polygon>
                    <polygon id="Fill-84" fill-opacity="0.37" fill="#A59F9E" points="54.4688918 81.306056 64.8574965 81.306056 64.8574965 79.0875803 54.4688918 79.0875803"></polygon>
                    <polygon id="Fill-85" fill-opacity="0.37" fill="#A59F9E" points="59.397162 84.9672608 62.313449 84.9672608 62.313449 82.7491849 59.397162 82.7491849"></polygon>
                    <polygon id="Fill-86" fill-opacity="0.37" fill="#A59F9E" points="63.3685384 84.9672608 70.5536647 84.9672608 70.5536647 82.7491849 63.3685384 82.7491849"></polygon>
                    <polygon id="Fill-87" fill-opacity="0.37" fill="#A59F9E" points="66.5001162 92.2900701 70.5536647 92.2900701 70.5536647 90.0719942 66.5001162 90.0719942"></polygon>
                    <polygon id="Fill-88" fill-opacity="0.37" fill="#A59F9E" points="54.6410423 92.2900701 65.0300578 92.2900701 65.0300578 90.0719942 54.6410423 90.0719942"></polygon>
                    <polygon id="Fill-89" fill-opacity="0.37" fill="#A59F9E" points="48.9452849 92.2900701 52.9988334 92.2900701 52.9988334 90.0719942 48.9452849 90.0719942"></polygon>
                    <polygon id="Fill-90" fill-opacity="0.37" fill="#A59F9E" points="57.1859115 95.9520746 60.1017876 95.9520746 60.1017876 93.7335988 57.1859115 93.7335988"></polygon>
                    <polygon id="Fill-91" fill-opacity="0.37" fill="#A59F9E" points="48.9452849 95.9520746 56.1304112 95.9520746 56.1304112 93.7335988 48.9452849 93.7335988"></polygon>
                    <path d="M11.3256763,69.9677577 L84.4530713,69.9677577 M11.3256763,24.7625158 L11.3256763,69.9677577 M25.2719209,24.7625158 L25.2719209,69.9677577 M39.2173438,24.7625158 L39.2173438,69.9677577 M53.1639993,24.7625158 L53.1639993,69.9677577 M67.67189,24.7949052 L67.109833,69.9677577 M81.0552559,24.7625158 L81.0552559,69.9677577 M11.3256763,59.3604206 L84.4530713,59.3604206 M11.3256763,48.7534835 L84.4407454,49.2669158 M11.3256763,38.1465463 L84.4530713,38.1465463 M11.3256763,27.5392093 L84.4530713,27.5392093" id="Stroke-92" stroke="#A59F9E" stroke-width="2.4" opacity="0.366429571"></path>
                    <path d="M74.4030156,32.4168169 L80.666582,27.5392093 L81.5458232,35.2994758 L74.4030156,32.4168169 L74.4030156,32.4168169 Z M78.8912543,33.5856353 L67.792683,59.6359307 L66.4265722,59.0845107 L77.5247327,33.0346152 L78.8912543,33.5856353 L78.8912543,33.5856353 Z M67.792683,59.6359307 L67.4204435,60.5100453 L66.6545997,59.9274355 L67.792683,59.6359307 L67.792683,59.6359307 Z M66.6545997,59.9274355 L52.7083551,49.3204983 L53.6188217,48.1864686 L67.5650663,58.7930059 L67.792683,59.6359307 L66.6545997,59.9274355 L66.6545997,59.9274355 Z M52.7083551,48.1864686 L53.1639993,47.8397818 L53.6188217,48.1864686 L52.7083551,48.1864686 L52.7083551,48.1864686 Z M53.6188217,49.3204983 L39.6729879,59.9274355 L38.7621105,58.7930059 L52.7083551,48.1864686 L53.6188217,48.1864686 L53.6188217,49.3204983 L53.6188217,49.3204983 Z M39.6729879,59.9274355 L39.0041073,60.4360695 L38.578045,59.7215027 L39.6729879,59.9274355 L39.6729879,59.9274355 Z M38.578045,59.7215027 L25.9334061,38.5072285 L27.2132362,37.7850643 L39.8574643,58.9993385 L39.6729879,59.9274355 L38.578045,59.7215027 L38.578045,59.7215027 Z M25.9058784,37.8358477 L26.5102541,36.6062492 L27.2132362,37.7850643 L25.9058784,37.8358477 L25.9058784,37.8358477 Z M27.2403529,38.456845 L11.6034179,70.2784562 L10.2689434,69.6570591 L25.9058784,37.8358477 L27.2132362,37.7850643 L27.2403529,38.456845 L27.2403529,38.456845 Z" id="Fill-93" fill="#E38F71"></path>
                    <polygon id="Fill-94" fill="#A59F9E" opacity="0.366429571" points="9.20276069 73.4882083 13.4485918 73.4882083 13.4485918 71.3872942 9.20276069 71.3872942"></polygon>
                    <polygon id="Fill-95" fill="#A59F9E" opacity="0.366429571" points="23.1490053 73.4882083 27.3948364 73.4882083 27.3948364 71.3872942 23.1490053 71.3872942"></polygon>
                    <polygon id="Fill-96" fill="#A59F9E" opacity="0.366429571" points="37.0948391 73.4882083 41.3406702 73.4882083 41.3406702 71.3872942 37.0948391 71.3872942"></polygon>
                    <polygon id="Fill-97" fill="#A59F9E" opacity="0.366429571" points="51.0410837 73.4882083 55.2869148 73.4882083 55.2869148 71.3872942 51.0410837 71.3872942"></polygon>
                    <polygon id="Fill-98" fill="#A59F9E" opacity="0.366429571" points="64.9869175 73.4882083 69.2327486 73.4882083 69.2327486 71.3872942 64.9869175 71.3872942"></polygon>
                    <polygon id="Fill-99" fill="#A59F9E" opacity="0.366429571" points="78.9327512 73.4882083 83.1785824 73.4882083 83.1785824 71.3872942 78.9327512 71.3872942"></polygon>
                    <polygon id="Fill-100" fill="#A59F9E" opacity="0.366429571" points="5.63854692 60.4108777 9.88437805 60.4108777 9.88437805 58.3099636 5.63854692 58.3099636"></polygon>
                    <polygon id="Fill-101" fill="#A59F9E" opacity="0.366429571" points="5.63854692 49.8035406 9.88437805 49.8035406 9.88437805 47.7030264 5.63854692 47.7030264"></polygon>
                    <polygon id="Fill-102" fill="#A59F9E" opacity="0.366429571" points="5.63854692 39.1966035 9.88437805 39.1966035 9.88437805 37.0956894 5.63854692 37.0956894"></polygon>
                    <polygon id="Fill-103" fill="#A59F9E" opacity="0.366429571" points="5.63854692 29.8228637 9.88437805 29.8228637 9.88437805 27.7219496 5.63854692 27.7219496"></polygon>
                    <path d="M58.5483245,17.6900247 L61.0377275,17.6900247 L61.0377275,14.2403509 L58.5483245,14.2403509 L58.5483245,17.6900247 Z M49.9658621,17.6900247 L57.155097,17.6900247 L57.155097,14.2403509 L49.9658621,14.2403509 L49.9658621,17.6900247 Z M39.0944965,17.6900247 L48.5726346,17.6900247 L48.5726346,14.2403509 L39.0944965,14.2403509 L39.0944965,17.6900247 Z M62.4313659,17.6900247 L67.7347517,17.6900247 L67.7347517,14.2403509 L62.4313659,14.2403509 L62.4313659,17.6900247 Z M33.3642269,17.6900247 L37.7008581,17.6900247 L37.7008581,14.2403509 L33.3642269,14.2403509 L33.3642269,17.6900247 Z M22.3564556,17.6900247 L31.9709993,17.6900247 L31.9709993,14.2403509 L22.3564556,14.2403509 L22.3564556,17.6900247 Z" id="Fill-104" fill="#CCCCCC"></path>
                </g>
                <path d="M155.5,279 C207.138624,279 249,237.138624 249,185.5 C249,133.861376 207.138624,92 155.5,92 C103.861376,92 62,133.861376 62,185.5 C62,237.138624 103.861376,279 155.5,279 Z" id="Oval-74"></path>
                <path d="M201.392717,282.55593 L242.889984,363.998903 L226.092734,372.55753 L183.605219,289.171086 C174.494515,291.667162 164.902908,293 155,293 C95.353247,293 47,244.646753 47,185 C47,125.353247 95.353247,77 155,77 C214.646753,77 263,125.353247 263,185 C263,228.040554 237.822783,265.200653 201.392717,282.55593 Z M155.5,279 C207.138624,279 249,237.138624 249,185.5 C249,133.861376 207.138624,92 155.5,92 C103.861376,92 62,133.861376 62,185.5 C62,237.138624 103.861376,279 155.5,279 Z" id="Combined-Shape" stroke="#9D948C" fill="#F0E9DC"></path>
                <path d="M204.392717,281.55593 L245.889984,362.998903 L229.092734,371.55753 L186.605219,288.171086 C177.494515,290.667162 167.902908,292 158,292 C98.353247,292 50,243.646753 50,184 C50,124.353247 98.353247,76 158,76 C217.646753,76 266,124.353247 266,184 C266,227.040554 240.822783,264.200653 204.392717,281.55593 Z M158.5,278 C210.138624,278 252,236.138624 252,184.5 C252,132.861376 210.138624,91 158.5,91 C106.861376,91 65,132.861376 65,184.5 C65,236.138624 106.861376,278 158.5,278 Z" id="Combined-Shape-Copy" fill-opacity="0.480000019" fill="#E38F71"></path>
            </g>
        </g>
    </g>
</svg>