<?xml version="1.0" encoding="UTF-8" standalone="no"?>
<svg width="314px" height="461px" viewBox="0 0 314 461" version="1.1" xmlns="http://www.w3.org/2000/svg" xmlns:xlink="http://www.w3.org/1999/xlink">
    <!-- Generator: Sketch 3.8.3 (29802) - http://www.bohemiancoding.com/sketch -->
    <title>guide3</title>
    <desc>Created with Sketch.</desc>
    <defs></defs>
    <g id="Hamburger-Navigation" stroke="none" stroke-width="1" fill="none" fill-rule="evenodd">
        <g id="Guide---3" transform="translate(-33.000000, -87.000000)">
            <g id="guide3" transform="translate(33.000000, 86.000000)">
                <path d="M120.5,1.5 L313.5,1.5" id="Line" stroke="#979797" stroke-linecap="square"></path>
                <path d="M0.5,1.5 L76.5454407,1.5" id="Line" stroke="#979797" stroke-linecap="square"></path>
                <path d="M255.5,351.5 L311.5,351.5" id="Line-Copy-16" stroke="#979797" stroke-linecap="square"></path>
                <path d="M0.5,354.5 L219.548187,354.5" id="Line-Copy-15" stroke="#979797" stroke-linecap="square"></path>
                <text id="根據結局給予你建議" font-family="PingFangTC-Medium, PingFang TC" font-size="18" font-weight="400" letter-spacing="0.745652199" fill-opacity="0.5" fill="#4B3F3E">
                    <tspan x="70.6445651" y="460">根據結局給予你建議</tspan>
                </text>
                <polygon id="Fill-100" fill="#F0E9DC" points="23 93.229375 285.64 93.229375 285.64 85 23 85"></polygon>
                <polygon id="Fill-106" fill="#E38F71" points="23 109.9175 142.361 109.9175 142.361 101.688125 23 101.688125"></polygon>
                <polygon id="Fill-106-Copy" fill="#9D948C" points="23 74.229375 200 74.229375 200 66 23 66"></polygon>
                <polyline id="Fill-32" stroke="#AA8D81" fill="#F0E9DC" points="241.957156 299.559558 98.9393568 322 68 150.440985 211.017216 128 241.957156 299.559558"></polyline>
                <polyline id="Fill-32-Copy" stroke="#AA8D81" fill="#F0E9DC" points="241.957156 299.559558 98.9393568 322 68 150.440985 211.017216 128 241.957156 299.559558"></polyline>
                <path d="M127.450214,227.934338 C128.704938,235.404622 123.676425,242.478999 116.219491,243.735628 C108.762265,244.992257 101.699963,239.95523 100.445531,232.484946 C99.1910987,225.014661 104.21932,217.940285 111.676837,216.683364 C119.133772,215.427027 126.195782,220.463761 127.450214,227.934338" id="Fill-34" fill="#E38F71"></path>
                <path d="M112.658205,237.856429 C111.970366,237.97234 111.238517,237.802123 110.655311,237.328843 L106.278205,233.774721 C105.198648,232.897942 105.032808,231.310513 105.908055,230.229357 C106.783301,229.147325 108.367663,228.981779 109.447512,229.858266 L111.917321,231.864084 L117.727813,225.034669 C118.628999,223.975118 120.21715,223.848404 121.27514,224.751752 C122.332839,225.654808 122.459331,227.24574 121.557854,228.304706 L114.15513,237.005635 C113.756125,237.474535 113.221884,237.761247 112.658205,237.856429" id="Fill-35" fill="#FFFFFF"></path>
                <polyline id="Fill-36" fill="#9D948C" points="205.361722 211.764897 137.386305 223.219665 136.75122 219.437224 204.726345 207.982456 205.361722 211.764897"></polyline>
                <polyline id="Fill-37" fill="#9D948C" points="187.232901 225.379516 139.083866 233.493006 138.44878 229.710273 186.597233 221.596491 187.232901 225.379516"></polyline>
                <path d="M121.509034,193.048445 C122.763175,200.51873 117.735245,207.593107 110.278019,208.849443 C102.820501,210.106072 95.7584913,205.069338 94.5040591,197.599053 C93.249627,190.128477 98.2781395,183.0541 105.735366,181.797471 C113.1923,180.540843 120.254602,185.577869 121.509034,193.048445" id="Fill-38" fill="#E38F71"></path>
                <path d="M106.71662,202.970075 C106.028781,203.085986 105.296932,202.916645 104.713726,202.443073 L100.33662,198.888367 C99.2570623,198.01188 99.0915146,196.42416 99.9664694,195.343004 C100.841716,194.261263 102.426077,194.095426 103.505927,194.972205 L105.975444,196.977731 L111.786228,190.148899 C112.687414,189.089056 114.275565,188.962634 115.333555,189.865398 C116.391253,190.768454 116.517746,192.359386 115.616268,193.418645 L108.213545,202.119865 C107.81454,202.588473 107.280299,202.875185 106.71662,202.970075" id="Fill-39" fill="#FFFFFF"></path>
                <polyline id="Fill-40" fill="#9D948C" points="201.117528 176.028055 133.142403 187.482822 132.507317 183.700381 200.48186 172.245614 201.117528 176.028055"></polyline>
                <polyline id="Fill-41" fill="#9D948C" points="158.914627 193.896768 134.839963 197.953367 134.204878 194.170926 158.278958 190.114035 158.914627 193.896768"></polyline>
                <path d="M133.391678,261.969336 C134.64611,269.439621 129.61818,276.514289 122.160954,277.770626 C114.703437,279.027255 107.641426,273.989937 106.386994,266.520236 C105.132562,259.049659 110.160783,251.975283 117.618301,250.718362 C125.075236,249.462317 132.137537,254.499343 133.391678,261.969336" id="Fill-42" fill="#E38F71"></path>
                <path d="M118.599838,271.891398 C117.911708,272.007309 117.179859,271.837384 116.596652,271.36352 L112.219547,267.80969 C111.139989,266.933203 110.974441,265.345483 111.849396,264.264035 C112.724642,263.182878 114.309004,263.016457 115.388853,263.892944 L117.858663,265.898762 L123.669155,259.069638 C124.570341,258.010379 126.158783,257.883665 127.216482,258.786137 C128.27418,259.689485 128.400673,261.280417 127.499195,262.34026 L120.096472,271.040604 C119.697467,271.509212 119.163517,271.7968 118.599838,271.891398" id="Fill-43" fill="#FFFFFF"></path>
                <polyline id="Fill-44" fill="#9D948C" points="210.454405 245.799985 142.478988 257.254752 141.843902 253.472311 209.818737 242.017544 210.454405 245.799985"></polyline>
                <polyline id="Fill-45" fill="#9D948C" points="180.497082 261.115774 144.17684 267.236293 143.541463 263.45356 179.861705 257.333333 180.497082 261.115774"></polyline>
                <polyline id="Fill-46" fill="#9D948C" points="220.750866 278.133318 192.556745 282.884508 191.921951 279.102067 220.115489 274.350877 220.750866 278.133318"></polyline>
                <g id="pencil" transform="translate(214.546875, 319.792969) rotate(48.000000) translate(-214.546875, -319.792969) translate(144.046875, 304.292969)">
                    <polyline id="Fill-49" fill="#4B3F3E" points="8.68277116 7.28412676 9.50843887 1.95649296 -2.27373675e-13 3.24757746 8.68277116 7.28412676"></polyline>
                    <polyline id="Fill-50" fill="#F1EEE9" points="21.8386458 13.3985493 23.9107712 -1.70530257e-13 9.50843887 1.95649296 8.68277116 7.28412676 21.8386458 13.3985493"></polyline>
                    <path d="M136.280699,30.6642394 C137.771586,30.8912817 139.163906,29.8787606 139.392423,28.4064789 L140.637997,20.3403662 C140.866514,18.8672113 139.842828,17.4914225 138.351498,17.2661268 L132.272586,16.3500986 L130.201787,29.7477746 L136.280699,30.6642394" id="Fill-51" fill="#F0E9DC"></path>
                    <polyline id="Fill-52" fill="#FFFFFF" points="119.966248 28.0183239 130.201787 29.7477746 132.272586 16.3500986 122.037489 14.6206479 119.966248 28.0183239"></polyline>
                    <path d="M20.2010125,6.11922535 C20.6845674,2.99302817 23.9107712,-1.13686838e-13 23.9107712,-1.13686838e-13 L122.037489,14.6206479 L119.966248,28.0183239 L21.8386458,13.3985493 C21.8386458,13.3985493 19.7196677,9.2445493 20.2010125,6.11922535" id="Fill-53" fill="#E38F71"></path>
                    <polyline id="Fill-54" fill="#E38F71" points="126.420865 29.1343239 128.385141 29.4945352 130.468317 16.0457746 128.502715 15.7130704 126.420865 29.1343239"></polyline>
                    <polyline id="Fill-55" fill="#E38F71" points="122.164787 28.3850845 124.101216 28.7173521 126.184834 15.3122535 124.209066 14.9882817 122.164787 28.3850845"></polyline>
                </g>
                <text id="成績結算" font-family="PingFangTC-Medium, PingFang TC" font-size="24" font-weight="400" letter-spacing="0.994202971" fill="#E38F71">
                    <tspan x="105.011594" y="423">成績結算</tspan>
                </text>
            </g>
        </g>
    </g>
</svg>